<svg xmlns="http://www.w3.org/2000/svg" viewBox="0 0 200 200">
    <path fill="#AD63F6"
        d="M200 51.813v34.62c-1.312 5.54-4.219 10.628-8.513 14.755-6.04 5.797-14.09 8.992-22.655 8.992H114.98V99.64c0-4.454-3.645-8.098-8.099-8.098H93.118c-4.452 0-8.096 3.645-8.096 8.098v10.54H31.167c-8.565 0-16.613-3.195-22.655-8.992-4.298-4.121-7.2-9.213-8.512-14.751V51.813C0 44.35 6.11 38.24 13.574 38.24h172.854c7.463 0 13.572 6.11 13.572 13.573zm-93.118 77.004a1.32 1.32 0 0 0 1.308-1.308V99.64c0-.712-.595-1.312-1.308-1.312H93.118c-.71 0-1.312.6-1.312 1.312v27.869c0 .712.602 1.308 1.312 1.308h13.764zm89.308-22.734c-7.316 7.017-17.026 10.885-27.358 10.885H114.98v10.542c0 4.448-3.645 8.095-8.099 8.095H93.118c-4.452 0-8.096-3.646-8.096-8.095v-10.542H31.167c-10.33 0-20.042-3.868-27.357-10.885A38.505 38.505 0 0 1 0 101.844v73.489c0 7.469 6.11 13.574 13.574 13.574h172.854c7.463 0 13.572-6.105 13.572-13.574v-73.489a38.404 38.404 0 0 1-3.81 4.239zm-64.894-91.014a13.534 13.534 0 0 0-9.599-3.977h-43.39a13.532 13.532 0 0 0-9.601 3.977 13.538 13.538 0 0 0-3.974 9.597v6.787h11.535v-6.787c0-.385.105-.948.6-1.44a1.998 1.998 0 0 1 1.44-.599h43.391c.382 0 .946.107 1.437.599.494.492.599 1.055.599 1.44v6.787h11.535v-6.787a13.543 13.543 0 0 0-3.973-9.597z"
        class="color5e889e svgShape" />
</svg>