<svg width="52" height="52" viewBox="0 0 52 52" fill="none" xmlns="http://www.w3.org/2000/svg">
<path d="M44.2671 45.7489C47.0303 42.7809 48.6676 38.7898 48.6676 34.3891C48.6676 29.8351 46.8256 25.6905 43.8577 22.6719C42.5787 33.4172 33.3684 41.7067 22.2138 41.6549H16.8413C19.5533 47.3345 25.3353 51.2232 31.9873 51.2232L50.2543 51.172L44.2671 45.7489Z" fill="#51C235"/>
<path d="M25.1814 12.1328H20.7809C20.3714 12.1328 20.0132 12.4911 20.0132 12.9005V13.5658H25.9486V12.9005C25.949 12.4911 25.642 12.1328 25.1814 12.1328Z" fill="#51C235"/>
<path d="M22.8272 0.824446C12.2352 0.773268 3.58821 9.36961 3.58821 19.9619C3.58821 24.9765 5.48144 29.5814 8.65405 33.0096L1.79736 39.1498L22.7253 39.2009C33.3173 39.2521 41.9135 30.6558 41.9643 20.0635C41.9643 9.47157 33.4191 0.824539 22.8269 0.824539L22.8272 0.824446ZM32.6003 26.664C32.6003 27.2781 32.0885 27.7383 31.5259 27.7383L14.5376 27.7387C13.9234 27.7387 13.4632 27.2269 13.4632 26.6644V14.6394C13.4632 14.0252 13.975 13.565 14.5376 13.565H18.7845V12.8997C18.7845 11.7742 19.7057 10.853 20.8312 10.853H25.2317C26.3572 10.853 27.2784 11.7742 27.2784 12.8997V13.565H31.5765C32.1906 13.565 32.6508 14.0768 32.6508 14.6394V26.6634L32.6003 26.664Z" fill="#51C235"/>
</svg>
