<svg width="220" height="220" viewBox="0 0 220 220" fill="none" xmlns="http://www.w3.org/2000/svg">
<g clip-path="url(#clip0_417_15772)">
<path d="M10.3124 10.3125C10.3124 4.61656 14.9289 0 20.6249 0C26.3208 0 30.9374 4.61656 30.9374 10.3125C30.9374 16.0084 26.3208 20.625 20.6249 20.625C14.9289 20.625 10.3124 16.0084 10.3124 10.3125ZM206.25 199.375C200.554 199.375 195.937 203.992 195.937 209.688C195.937 215.383 200.554 220 206.25 220C211.946 220 216.562 215.383 216.562 209.688C216.562 203.992 211.946 199.375 206.25 199.375ZM207.288 147.812H151.25V123.75H202.221C209.402 123.75 215.816 118.501 216.497 111.351C217.281 103.149 210.853 96.25 202.812 96.25H151.25V68.75H205.659C212.84 68.75 219.254 63.5009 219.935 56.3509C220.718 48.1491 214.29 41.25 206.25 41.25H161.562C155.866 41.25 151.25 36.6334 151.25 30.9375C151.25 25.2416 155.866 20.625 161.562 20.625H168.54C174.178 20.625 178.75 16.0531 178.75 10.4122V10.2128C178.75 4.57187 174.178 0 168.54 0H51.4592C45.8217 0 41.2499 4.57187 41.2499 10.2128V10.4156C41.2499 16.0531 45.8217 20.625 51.4592 20.625H56.7186C63.3633 20.625 68.7499 26.0116 68.7499 32.6562C68.7499 39.3009 63.3633 44.6875 56.7186 44.6875H12.7117C6.19768 44.6875 0.35737 49.5653 0.0170579 56.0725C-0.347317 63.0128 5.17331 68.75 12.0311 68.75H68.7499V85.9375H17.1874C9.59393 85.9375 3.43737 92.0941 3.43737 99.6875C3.43737 107.281 9.59393 113.438 17.1874 113.438H68.7499V140.938H14.3411C7.16018 140.938 0.745808 146.187 0.0651829 153.333C-0.718567 161.535 5.70956 168.438 13.7499 168.438H48.1249C55.7183 168.438 61.8749 174.594 61.8749 182.188V185.625C61.8749 193.218 55.7183 199.375 48.1249 199.375H45.0689C40.0811 199.375 35.5092 202.747 34.5708 207.646C33.3058 214.235 38.3246 220 44.6874 220H174.931C179.919 220 184.49 216.628 185.429 211.729C186.694 205.14 181.675 199.375 175.312 199.375H171.875C164.281 199.375 158.125 193.218 158.125 185.625C158.125 178.032 164.281 171.875 171.875 171.875H207.969C214.826 171.875 220.347 166.138 219.983 159.197C219.642 152.69 213.802 147.812 207.288 147.812Z" fill="url(#paint0_radial_417_15772)"/>
<path d="M61.875 27.5H158.125C177.11 27.5 192.5 42.8897 192.5 61.875V158.125C192.5 177.11 177.11 192.5 158.125 192.5H61.875C42.8897 192.5 27.5 177.11 27.5 158.125V61.875C27.5 42.8897 42.8897 27.5 61.875 27.5Z" fill="url(#paint1_linear_417_15772)"/>
<path d="M84.3219 103.742L48.95 144.992C48.4344 143.755 48.125 142.38 48.125 140.936V79.0609C48.125 77.2047 48.6063 75.4859 49.4313 74.0078L84.3219 103.742Z" fill="white"/>
<path d="M105.153 112.441L54.7251 69.4719C55.8595 68.9906 57.1313 68.75 58.4376 68.75H161.563C162.938 68.75 164.244 69.025 165.447 69.5406L118.284 112.234C114.709 115.466 108.831 115.569 105.153 112.441Z" fill="white"/>
<path d="M131.553 109.486L166.341 150.083C164.931 150.839 163.281 151.252 161.563 151.252H58.4376C56.7188 151.252 55.0688 150.839 53.6594 150.083L89.5469 108.18L100.684 117.667C103.744 120.245 107.594 121.689 111.616 121.689C115.775 121.689 119.797 120.142 122.891 117.323L131.553 109.486Z" fill="white"/>
<path d="M171.875 79.0641V140.939C171.875 142.383 171.566 143.758 171.05 144.995L136.641 104.88L170.637 74.1484C171.428 75.5922 171.875 77.2766 171.875 79.0641Z" fill="white"/>
<path d="M85.9031 35.2C86.4188 40.3562 82.3969 44.6875 77.3438 44.6875H51.5625C49.6719 44.6875 47.9531 45.4438 46.7156 46.7156C45.4438 47.9531 44.6875 49.6719 44.6875 51.5625C44.6875 55.3438 47.7812 58.4375 51.5625 58.4375H56.7188C59.5719 58.4375 61.875 60.7406 61.875 63.5938C61.875 66.4469 59.5719 68.75 56.7188 68.75H27.5V61.875C27.5 42.9 42.9 27.5 61.875 27.5H76.8625C81.3656 27.5 85.4562 30.7312 85.9031 35.2Z" fill="url(#paint2_linear_417_15772)"/>
<path d="M137.534 184.8C137.019 179.644 141.041 175.312 146.094 175.312H161.562C163.453 175.312 165.172 174.556 166.409 173.284C167.681 172.047 168.437 170.328 168.437 168.438C168.437 164.656 165.344 161.562 161.562 161.562H156.406C153.553 161.562 151.25 159.259 151.25 156.406C151.25 153.553 153.553 151.25 156.406 151.25H192.5V158.125C192.5 177.1 177.1 192.5 158.125 192.5H146.575C142.072 192.5 137.981 189.269 137.534 184.8Z" fill="url(#paint3_linear_417_15772)"/>
</g>
<defs>
<radialGradient id="paint0_radial_417_15772" cx="0" cy="0" r="1" gradientUnits="userSpaceOnUse" gradientTransform="translate(110 110) scale(110 110)">
<stop stop-color="#9CEEFF"/>
<stop offset="0.642" stop-color="#C5F5FF"/>
<stop offset="1" stop-color="#DCF9FF"/>
</radialGradient>
<linearGradient id="paint1_linear_417_15772" x1="110" y1="233.313" x2="110" y2="-19.085" gradientUnits="userSpaceOnUse">
<stop stop-color="#005CE2"/>
<stop offset="0.278" stop-color="#0080E8"/>
<stop offset="0.569" stop-color="#009CED"/>
<stop offset="0.82" stop-color="#00B0F1"/>
<stop offset="1" stop-color="#00B5F2"/>
</linearGradient>
<linearGradient id="paint2_linear_417_15772" x1="56.7256" y1="214.703" x2="56.7256" y2="25.3034" gradientUnits="userSpaceOnUse">
<stop stop-color="#005CE2"/>
<stop offset="0.278" stop-color="#0080E8"/>
<stop offset="0.569" stop-color="#009CED"/>
<stop offset="0.82" stop-color="#00B0F1"/>
<stop offset="1" stop-color="#00B5F2"/>
</linearGradient>
<linearGradient id="paint3_linear_417_15772" x1="164.993" y1="206.858" x2="164.993" y2="7.645" gradientUnits="userSpaceOnUse">
<stop stop-color="#005CE2"/>
<stop offset="0.278" stop-color="#0080E8"/>
<stop offset="0.569" stop-color="#009CED"/>
<stop offset="0.82" stop-color="#00B0F1"/>
<stop offset="1" stop-color="#00B5F2"/>
</linearGradient>
<clipPath id="clip0_417_15772">
<rect width="220" height="220" fill="white"/>
</clipPath>
</defs>
</svg>
