<svg xmlns="http://www.w3.org/2000/svg" data-name="Layer 1" viewBox="0 0 128 128">
    <path fill="#3F8CFF"
        d="M101,8H80V6a6.00476,6.00476,0,0,0-6-6H54a6.00476,6.00476,0,0,0-6,6V8H27a6.00476,6.00476,0,0,0-6,6V122a6.00476,6.00476,0,0,0,6,6h74a6.00476,6.00476,0,0,0,6-6V14A6.00476,6.00476,0,0,0,101,8ZM52,6a2.00587,2.00587,0,0,1,2-2H74a2.00587,2.00587,0,0,1,2,2V8H52Zm-6,6H82v4a2.00591,2.00591,0,0,1-2,2H48a2.00591,2.00591,0,0,1-2-2ZM38.5,27h51a2,2,0,0,1,0,4h-51a2,2,0,0,1,0-4Zm0,8h51a2,2,0,0,1,0,4h-51a2,2,0,0,1,0-4Zm0,8h51a2,2,0,0,1,0,4h-51a2,2,0,0,1,0-4ZM50,72H61.82007A11.99345,11.99345,0,1,1,48,58.17993V70A2.0001,2.0001,0,0,0,50,72Zm2-4V58.17993A11.9904,11.9904,0,0,1,61.82007,68Zm38,50H38a2,2,0,0,1,0-4h3V102a2.00587,2.00587,0,0,1,2-2h6a2.00587,2.00587,0,0,1,2,2v12h8V92a2.00587,2.00587,0,0,1,2-2h6a2.00587,2.00587,0,0,1,2,2v22h8V82a2.00587,2.00587,0,0,1,2-2h6a2.00587,2.00587,0,0,1,2,2v32h3a2,2,0,0,1,0,4Zm2-53a2.00591,2.00591,0,0,1-2,2H78a2.00591,2.00591,0,0,1-2-2V53a2.00587,2.00587,0,0,1,2-2H90a2.00587,2.00587,0,0,1,2,2Z"
        class="color000000 svgShape" />
</svg>