<svg xmlns="http://www.w3.org/2000/svg" enable-background="new 0 0 60 60" viewBox="0 0 60 60">
    <path fill="#3F8CFF"
        d="M45.8300171,6.3300171H14.1699829c-1.6599731,0-3,1.3499756-3,3v41.3399658c0,1.6501465,1.3400269,3,3,3  h31.6600342c1.6599731,0,3-1.3498535,3-3V9.3300171C48.8300171,7.6799927,47.4899902,6.3300171,45.8300171,6.3300171z   M24.7399902,42.460022l-4.1300049,4.1199951c-0.1799927,0.1900635-0.4400024,0.3000488-0.7000122,0.3000488  c-0.2699585,0-0.5199585-0.1099854-0.7099609-0.3000488l-2.0499878-2.0499268c-0.3900146-0.3900146-0.3900146-1.0300293,0-1.4200439  c0.3899536-0.3900146,1.0199585-0.3900146,1.4099731,0l1.3499756,1.3499756l3.4100342-3.4199219  c0.3900146-0.3901367,1.0299683-0.3901367,1.4199829,0C25.1300049,41.4299927,25.1300049,42.0701294,24.7399902,42.460022z   M24.7399902,33.250061l-4.1300049,4.1199951c-0.1799927,0.1900635-0.4400024,0.2999268-0.7000122,0.2999268  c-0.2699585,0-0.5199585-0.1098633-0.7099609-0.2999268l-2.0499878-2.0499268c-0.3900146-0.3901367-0.3900146-1.0200195,0-1.4101563  c0.3899536-0.3898926,1.0199585-0.3898926,1.4099731,0l1.3499756,1.3400879l3.4100342-3.4200439  c0.3900146-0.3900146,1.0299683-0.3900146,1.4199829,0C25.1300049,32.2300415,25.1300049,32.8600464,24.7399902,33.250061z   M24.7399902,24.0401001l-4.1300049,4.1298828c-0.1799927,0.1800537-0.4400024,0.2900391-0.7000122,0.2900391  c-0.2699585,0-0.5199585-0.1099854-0.7099609-0.2900391l-2.0499878-2.0599365c-0.3900146-0.3900146-0.3900146-1.0200195,0-1.4100342  c0.3899536-0.3898926,1.0199585-0.3898926,1.4099731,0l1.3499756,1.3400879l3.4100342-3.4100342  c0.3900146-0.3900146,1.0299683-0.3900146,1.4199829,0S25.1300049,23.6499634,24.7399902,24.0401001z M24.7399902,14.8300171  l-4.1300049,4.1300049c-0.1799927,0.1800537-0.4400024,0.2900391-0.7000122,0.2900391  c-0.2699585,0-0.5199585-0.1099854-0.7099609-0.2900391l-2.0499878-2.0600586c-0.3900146-0.3898926-0.3900146-1.0198975,0-1.4099121  c0.3899536-0.3900146,1.0199585-0.3900146,1.4099731,0l1.3499756,1.3499756l3.4100342-3.4200439  c0.3900146-0.3898926,1.0299683-0.3898926,1.4199829,0C25.1300049,13.8101196,25.1300049,14.4400024,24.7399902,14.8300171z   M42.1500244,44.8101196H27.7700195c-0.5500488,0-1-0.4400635-1-1c0-0.5500488,0.4499512-1,1-1h14.3800049  c0.5499878,0,1,0.4499512,1,1C43.1500244,44.3700562,42.7000122,44.8101196,42.1500244,44.8101196z M42.1500244,35.6000366  H27.7700195c-0.5500488,0-1-0.4400635-1-1c0-0.5499268,0.4499512-1,1-1h14.3800049c0.5499878,0,1,0.4500732,1,1  C43.1500244,35.1599731,42.7000122,35.6000366,42.1500244,35.6000366z M42.1500244,26.3999634H27.7700195  c-0.5500488,0-1-0.4499512-1-1c0-0.5599365,0.4499512-1,1-1h14.3800049c0.5499878,0,1,0.4400635,1,1  C43.1500244,25.9500122,42.7000122,26.3999634,42.1500244,26.3999634z M42.1500244,17.1900024H27.7700195  c-0.5500488,0-1-0.4499512-1-1c0-0.5599365,0.4499512-1,1-1h14.3800049c0.5499878,0,1,0.4400635,1,1  C43.1500244,16.7400513,42.7000122,17.1900024,42.1500244,17.1900024z"
        class="color2b79c2 svgShape" />
</svg>