<svg width="49" height="49" viewBox="0 0 49 49" fill="none" xmlns="http://www.w3.org/2000/svg">
<path d="M24.5 16.332V4.08203H12.25C11.167 4.08203 10.1284 4.51224 9.36263 5.27801C8.59686 6.04379 8.16665 7.0824 8.16665 8.16536V23.682C10.2715 22.6069 12.6619 22.2234 14.9975 22.5861C17.333 22.9487 19.4946 24.0391 21.1743 25.7018C22.854 27.3646 23.9662 29.515 24.3526 31.8467C24.7389 34.1784 24.3797 36.5726 23.326 38.6883L27.5359 42.9002C28.1035 43.4658 28.4404 44.1783 28.5466 44.9154H36.75C37.833 44.9154 38.8716 44.4852 39.6373 43.7194C40.4031 42.9536 40.8333 41.915 40.8333 40.832V20.4154H28.5833C27.5003 20.4154 26.4617 19.9852 25.696 19.2194C24.9302 18.4536 24.5 17.415 24.5 16.332ZM27.5625 16.332V5.10286L39.8125 17.3529H28.5833C28.3126 17.3529 28.0529 17.2453 27.8615 17.0539C27.67 16.8624 27.5625 16.6028 27.5625 16.332ZM13.2708 42.8737C15.1783 42.8737 17.0386 42.2801 18.5934 41.175L23.9283 46.5079C24.0685 46.6583 24.2376 46.779 24.4254 46.8627C24.6132 46.9464 24.816 46.9914 25.0216 46.995C25.2272 46.9986 25.4314 46.9608 25.6221 46.8838C25.8127 46.8068 25.9859 46.6921 26.1314 46.5467C26.2768 46.4013 26.3914 46.2281 26.4684 46.0375C26.5454 45.8468 26.5832 45.6426 26.5796 45.437C26.576 45.2314 26.531 45.0286 26.4473 44.8408C26.3636 44.6529 26.2429 44.4839 26.0925 44.3437L20.7596 39.0088C21.9528 37.3301 22.5473 35.2991 22.4478 33.2419C22.3482 31.1848 21.5602 29.2207 20.2105 27.6651C18.8607 26.1094 17.0274 25.0524 15.0048 24.6638C12.9822 24.2751 10.8877 24.5773 9.0575 25.5218C7.22729 26.4664 5.76752 27.9985 4.91254 29.8722C4.05756 31.746 3.85695 33.8527 4.34293 35.8541C4.82891 37.8555 5.97328 39.6356 7.59234 40.9086C9.2114 42.1816 11.2112 42.8737 13.2708 42.8737ZM13.2708 39.8112C11.6464 39.8112 10.0884 39.1659 8.93979 38.0172C7.79113 36.8686 7.14582 35.3106 7.14582 33.6862C7.14582 32.0617 7.79113 30.5038 8.93979 29.3552C10.0884 28.2065 11.6464 27.5612 13.2708 27.5612C14.8953 27.5612 16.4532 28.2065 17.6018 29.3552C18.7505 30.5038 19.3958 32.0617 19.3958 33.6862C19.3958 35.3106 18.7505 36.8686 17.6018 38.0172C16.4532 39.1659 14.8953 39.8112 13.2708 39.8112Z" fill="#FD5812"/>
</svg>
